<mxfile host="65bd71144e" pages="3">
    <diagram id="C5RBs43oDa-KdzZeNtuy" name="Page-1">
        <mxGraphModel dx="1112" dy="771" grid="1" gridSize="10" guides="1" tooltips="1" connect="1" arrows="1" fold="1" page="1" pageScale="1" pageWidth="1169" pageHeight="1654" math="0" shadow="0">
            <root>
                <mxCell id="WIyWlLk6GJQsqaUBKTNV-0"/>
                <mxCell id="WIyWlLk6GJQsqaUBKTNV-1" parent="WIyWlLk6GJQsqaUBKTNV-0"/>
                <mxCell id="0" value="Б" style="verticalLabelPosition=middle;verticalAlign=middle;html=1;shape=mxgraph.flowchart.on-page_reference;rounded=0;labelPosition=center;align=center;strokeWidth=2;" vertex="1" parent="WIyWlLk6GJQsqaUBKTNV-1">
                    <mxGeometry x="270" y="1560" width="60" height="60" as="geometry"/>
                </mxCell>
                <mxCell id="1" value="&lt;font style=&quot;font-size: 12px&quot;&gt;Да&lt;/font&gt;" style="edgeStyle=orthogonalEdgeStyle;rounded=0;orthogonalLoop=1;jettySize=auto;html=1;exitX=1;exitY=0.5;exitDx=0;exitDy=0;startArrow=none;startFill=0;endArrow=classic;endFill=1;strokeWidth=2;" edge="1" parent="WIyWlLk6GJQsqaUBKTNV-1" source="3">
                    <mxGeometry x="-0.6364" y="20" relative="1" as="geometry">
                        <mxPoint x="540" y="1000" as="targetPoint"/>
                        <mxPoint as="offset"/>
                    </mxGeometry>
                </mxCell>
                <mxCell id="2" style="edgeStyle=orthogonalEdgeStyle;rounded=0;orthogonalLoop=1;jettySize=auto;html=1;exitX=0;exitY=0.5;exitDx=0;exitDy=0;startArrow=none;startFill=0;endArrow=none;endFill=0;strokeWidth=2;" edge="1" parent="WIyWlLk6GJQsqaUBKTNV-1" source="3">
                    <mxGeometry relative="1" as="geometry">
                        <mxPoint x="540" y="1520" as="targetPoint"/>
                        <Array as="points">
                            <mxPoint x="60" y="880"/>
                            <mxPoint x="60" y="1520"/>
                            <mxPoint x="540" y="1520"/>
                        </Array>
                    </mxGeometry>
                </mxCell>
                <mxCell id="3" value="&lt;font&gt;&lt;font style=&quot;font-size: 12px&quot;&gt;2 старших байта счетчика = 24?&lt;/font&gt;&lt;br&gt;&lt;/font&gt;" style="rhombus;whiteSpace=wrap;html=1;rounded=0;arcSize=6;strokeWidth=2;" vertex="1" parent="WIyWlLk6GJQsqaUBKTNV-1">
                    <mxGeometry x="160" y="840" width="280" height="80" as="geometry"/>
                </mxCell>
                <mxCell id="4" value="&lt;font style=&quot;font-size: 12px&quot;&gt;Да&lt;/font&gt;" style="edgeStyle=orthogonalEdgeStyle;rounded=0;orthogonalLoop=1;jettySize=auto;html=1;exitX=1;exitY=0.5;exitDx=0;exitDy=0;startArrow=none;startFill=0;endArrow=classic;endFill=1;entryX=0.5;entryY=0;entryDx=0;entryDy=0;strokeWidth=2;" edge="1" parent="WIyWlLk6GJQsqaUBKTNV-1" source="6" target="8">
                    <mxGeometry x="-0.8182" y="20" relative="1" as="geometry">
                        <mxPoint x="780" y="1160" as="targetPoint"/>
                        <mxPoint as="offset"/>
                    </mxGeometry>
                </mxCell>
                <mxCell id="5" style="edgeStyle=orthogonalEdgeStyle;rounded=0;orthogonalLoop=1;jettySize=auto;html=1;exitX=0;exitY=0.5;exitDx=0;exitDy=0;startArrow=none;startFill=0;endArrow=none;endFill=0;strokeWidth=2;" edge="1" parent="WIyWlLk6GJQsqaUBKTNV-1" source="6">
                    <mxGeometry relative="1" as="geometry">
                        <mxPoint x="540" y="1500" as="targetPoint"/>
                        <Array as="points">
                            <mxPoint x="300" y="1040"/>
                            <mxPoint x="300" y="1480"/>
                            <mxPoint x="540" y="1480"/>
                        </Array>
                    </mxGeometry>
                </mxCell>
                <mxCell id="6" value="&lt;font style=&quot;font-size: 12px&quot;&gt;2 младших байта счетчика = 176?&lt;/font&gt;" style="rhombus;whiteSpace=wrap;html=1;rounded=0;arcSize=6;strokeWidth=2;" vertex="1" parent="WIyWlLk6GJQsqaUBKTNV-1">
                    <mxGeometry x="400" y="1000" width="280" height="80" as="geometry"/>
                </mxCell>
                <mxCell id="7" style="edgeStyle=orthogonalEdgeStyle;rounded=0;orthogonalLoop=1;jettySize=auto;html=1;exitX=0.5;exitY=1;exitDx=0;exitDy=0;entryX=0.5;entryY=0;entryDx=0;entryDy=0;startArrow=none;startFill=0;endArrow=none;endFill=0;strokeWidth=2;" edge="1" parent="WIyWlLk6GJQsqaUBKTNV-1" source="8" target="10">
                    <mxGeometry relative="1" as="geometry"/>
                </mxCell>
                <mxCell id="8" value="&lt;font style=&quot;font-size: 12px&quot;&gt;Обнуление 2 старших байта счетчика реального времени&lt;/font&gt;" style="whiteSpace=wrap;html=1;rounded=0;arcSize=6;strokeWidth=2;" vertex="1" parent="WIyWlLk6GJQsqaUBKTNV-1">
                    <mxGeometry x="680" y="1120" width="200" height="80" as="geometry"/>
                </mxCell>
                <mxCell id="9" style="edgeStyle=orthogonalEdgeStyle;rounded=0;orthogonalLoop=1;jettySize=auto;html=1;exitX=0.5;exitY=1;exitDx=0;exitDy=0;entryX=0.5;entryY=0;entryDx=0;entryDy=0;startArrow=none;startFill=0;endArrow=none;endFill=0;strokeWidth=2;" edge="1" parent="WIyWlLk6GJQsqaUBKTNV-1" source="10" target="12">
                    <mxGeometry relative="1" as="geometry"/>
                </mxCell>
                <mxCell id="10" value="&lt;font style=&quot;font-size: 12px&quot;&gt;Обнуление 2 младших байта счетчика реального времени&lt;/font&gt;" style="whiteSpace=wrap;html=1;rounded=0;arcSize=6;strokeWidth=2;" vertex="1" parent="WIyWlLk6GJQsqaUBKTNV-1">
                    <mxGeometry x="680" y="1240" width="200" height="80" as="geometry"/>
                </mxCell>
                <mxCell id="11" style="edgeStyle=orthogonalEdgeStyle;rounded=0;orthogonalLoop=1;jettySize=auto;html=1;exitX=0.5;exitY=1;exitDx=0;exitDy=0;entryX=0.5;entryY=0;entryDx=0;entryDy=0;entryPerimeter=0;startArrow=none;startFill=0;endArrow=classic;endFill=1;strokeWidth=2;" edge="1" parent="WIyWlLk6GJQsqaUBKTNV-1" source="12" target="0">
                    <mxGeometry relative="1" as="geometry">
                        <Array as="points">
                            <mxPoint x="780" y="1480"/>
                            <mxPoint x="540" y="1480"/>
                            <mxPoint x="540" y="1520"/>
                            <mxPoint x="300" y="1520"/>
                        </Array>
                    </mxGeometry>
                </mxCell>
                <mxCell id="12" value="&lt;font style=&quot;font-size: 12px&quot;&gt;Установка флага прошедших суток&lt;/font&gt;" style="whiteSpace=wrap;html=1;rounded=0;arcSize=6;strokeWidth=2;" vertex="1" parent="WIyWlLk6GJQsqaUBKTNV-1">
                    <mxGeometry x="680" y="1360" width="200" height="80" as="geometry"/>
                </mxCell>
                <mxCell id="13" style="edgeStyle=orthogonalEdgeStyle;rounded=0;orthogonalLoop=1;jettySize=auto;html=1;exitX=0.5;exitY=1;exitDx=0;exitDy=0;exitPerimeter=0;entryX=0.5;entryY=0;entryDx=0;entryDy=0;endArrow=none;endFill=0;strokeWidth=2;" edge="1" parent="WIyWlLk6GJQsqaUBKTNV-1" source="14" target="3">
                    <mxGeometry relative="1" as="geometry"/>
                </mxCell>
                <mxCell id="14" value="А" style="verticalLabelPosition=middle;verticalAlign=middle;html=1;shape=mxgraph.flowchart.on-page_reference;rounded=0;labelPosition=center;align=center;strokeWidth=2;" vertex="1" parent="WIyWlLk6GJQsqaUBKTNV-1">
                    <mxGeometry x="270" y="730" width="60" height="60" as="geometry"/>
                </mxCell>
            </root>
        </mxGraphModel>
    </diagram>
    <diagram id="4PLdLxgveLM03PC5nY2m" name="Page-3">
        <mxGraphModel dx="1112" dy="-883" grid="1" gridSize="10" guides="1" tooltips="1" connect="1" arrows="1" fold="1" page="1" pageScale="1" pageWidth="1169" pageHeight="1654" math="0" shadow="0">
            <root>
                <mxCell id="PTrQx92x1PSHm9LetNAU-0"/>
                <mxCell id="PTrQx92x1PSHm9LetNAU-1" parent="PTrQx92x1PSHm9LetNAU-0"/>
                <mxCell id="jrrK-UpiYWsVEIdKNfRv-0" value="&lt;font style=&quot;font-size: 12px&quot;&gt;Установка флага отключения моторчика дисковода&lt;/font&gt;" style="whiteSpace=wrap;html=1;rounded=0;arcSize=6;strokeWidth=2;" parent="PTrQx92x1PSHm9LetNAU-1" vertex="1">
                    <mxGeometry x="620" y="2090" width="280" height="80" as="geometry"/>
                </mxCell>
                <mxCell id="jrrK-UpiYWsVEIdKNfRv-1" value="&lt;font style=&quot;font-size: 12px&quot;&gt;Отправка команды отключения 0Ch в порт дисковода (3F2h)&lt;/font&gt;" style="whiteSpace=wrap;html=1;rounded=0;arcSize=6;strokeWidth=2;" parent="PTrQx92x1PSHm9LetNAU-1" vertex="1">
                    <mxGeometry x="620" y="2210" width="280" height="80" as="geometry"/>
                </mxCell>
            </root>
        </mxGraphModel>
    </diagram>
    <diagram id="SMo9lqOiyiK44Y0W1xno" name="Page-2">
        <mxGraphModel dx="2281" dy="771" grid="1" gridSize="10" guides="1" tooltips="1" connect="1" arrows="1" fold="1" page="1" pageScale="1" pageWidth="1169" pageHeight="1654" math="0" shadow="0">
            <root>
                <mxCell id="3hFEeD8surCcH0dSWmG2-0"/>
                <mxCell id="3hFEeD8surCcH0dSWmG2-1" parent="3hFEeD8surCcH0dSWmG2-0"/>
                <mxCell id="l-EBOWrs5vo055zlGGoX-1" style="edgeStyle=orthogonalEdgeStyle;rounded=0;orthogonalLoop=1;jettySize=auto;html=1;exitX=0.5;exitY=1;exitDx=0;exitDy=0;exitPerimeter=0;entryX=0.5;entryY=0;entryDx=0;entryDy=0;startArrow=none;startFill=0;endArrow=none;endFill=0;strokeWidth=2;" parent="3hFEeD8surCcH0dSWmG2-1" source="3hFEeD8surCcH0dSWmG2-2" target="T3StZe7bPnIQIUZtU70U-0" edge="1">
                    <mxGeometry relative="1" as="geometry"/>
                </mxCell>
                <mxCell id="3hFEeD8surCcH0dSWmG2-2" value="&lt;font style=&quot;font-size: 12px&quot;&gt;Начало&lt;/font&gt;" style="strokeWidth=2;html=1;shape=mxgraph.flowchart.terminator;whiteSpace=wrap;" parent="3hFEeD8surCcH0dSWmG2-1" vertex="1">
                    <mxGeometry x="-760" y="80" width="280" height="80" as="geometry"/>
                </mxCell>
                <mxCell id="l-EBOWrs5vo055zlGGoX-2" style="edgeStyle=orthogonalEdgeStyle;rounded=0;orthogonalLoop=1;jettySize=auto;html=1;exitX=0.5;exitY=1;exitDx=0;exitDy=0;entryX=0.5;entryY=0;entryDx=0;entryDy=0;startArrow=none;startFill=0;endArrow=none;endFill=0;strokeWidth=2;" parent="3hFEeD8surCcH0dSWmG2-1" source="T3StZe7bPnIQIUZtU70U-0" target="T3StZe7bPnIQIUZtU70U-1" edge="1">
                    <mxGeometry relative="1" as="geometry"/>
                </mxCell>
                <mxCell id="T3StZe7bPnIQIUZtU70U-0" value="&lt;span&gt;Сохранение регистров&lt;br&gt;DS, AX&lt;br&gt;&lt;/span&gt;" style="whiteSpace=wrap;html=1;rounded=0;arcSize=6;strokeWidth=2;" parent="3hFEeD8surCcH0dSWmG2-1" vertex="1">
                    <mxGeometry x="-760" y="200" width="280" height="80" as="geometry"/>
                </mxCell>
                <mxCell id="l-EBOWrs5vo055zlGGoX-3" style="edgeStyle=orthogonalEdgeStyle;rounded=0;orthogonalLoop=1;jettySize=auto;html=1;exitX=0.5;exitY=1;exitDx=0;exitDy=0;entryX=0.5;entryY=0;entryDx=0;entryDy=0;startArrow=none;startFill=0;endArrow=none;endFill=0;strokeWidth=2;" parent="3hFEeD8surCcH0dSWmG2-1" source="T3StZe7bPnIQIUZtU70U-1" target="l-EBOWrs5vo055zlGGoX-0" edge="1">
                    <mxGeometry relative="1" as="geometry"/>
                </mxCell>
                <mxCell id="T3StZe7bPnIQIUZtU70U-1" value="&lt;span&gt;Загрузка младшего байта регистра&lt;br&gt;EFLAGS в AH&lt;br&gt;&lt;/span&gt;" style="whiteSpace=wrap;html=1;rounded=0;arcSize=6;strokeWidth=2;" parent="3hFEeD8surCcH0dSWmG2-1" vertex="1">
                    <mxGeometry x="-760" y="440" width="280" height="80" as="geometry"/>
                </mxCell>
                <mxCell id="l-EBOWrs5vo055zlGGoX-5" style="edgeStyle=orthogonalEdgeStyle;rounded=0;orthogonalLoop=1;jettySize=auto;html=1;exitX=1;exitY=0.5;exitDx=0;exitDy=0;entryX=0.5;entryY=0;entryDx=0;entryDy=0;startArrow=none;startFill=0;endArrow=classic;endFill=1;strokeWidth=2;" parent="3hFEeD8surCcH0dSWmG2-1" source="l-EBOWrs5vo055zlGGoX-0" target="l-EBOWrs5vo055zlGGoX-4" edge="1">
                    <mxGeometry relative="1" as="geometry"/>
                </mxCell>
                <mxCell id="l-EBOWrs5vo055zlGGoX-7" style="edgeStyle=orthogonalEdgeStyle;rounded=0;orthogonalLoop=1;jettySize=auto;html=1;exitX=0;exitY=0.5;exitDx=0;exitDy=0;entryX=0.5;entryY=0;entryDx=0;entryDy=0;startArrow=none;startFill=0;endArrow=classic;endFill=1;strokeWidth=2;" parent="3hFEeD8surCcH0dSWmG2-1" source="l-EBOWrs5vo055zlGGoX-0" target="l-EBOWrs5vo055zlGGoX-6" edge="1">
                    <mxGeometry relative="1" as="geometry"/>
                </mxCell>
                <mxCell id="l-EBOWrs5vo055zlGGoX-0" value="&lt;font style=&quot;font-size: 12px&quot;&gt;Установлены ли DF и старший&lt;br&gt;&amp;nbsp;бит IOPL в 0040:0314?&lt;/font&gt;" style="rhombus;whiteSpace=wrap;html=1;rounded=0;arcSize=6;strokeWidth=2;" parent="3hFEeD8surCcH0dSWmG2-1" vertex="1">
                    <mxGeometry x="-760" y="560" width="280" height="80" as="geometry"/>
                </mxCell>
                <mxCell id="l-EBOWrs5vo055zlGGoX-12" style="edgeStyle=orthogonalEdgeStyle;rounded=0;orthogonalLoop=1;jettySize=auto;html=1;exitX=0.5;exitY=1;exitDx=0;exitDy=0;startArrow=none;startFill=0;endArrow=classic;endFill=1;entryX=0.5;entryY=0;entryDx=0;entryDy=0;strokeWidth=2;" parent="3hFEeD8surCcH0dSWmG2-1" source="l-EBOWrs5vo055zlGGoX-4" target="l-EBOWrs5vo055zlGGoX-8" edge="1">
                    <mxGeometry relative="1" as="geometry">
                        <mxPoint x="-620" y="840" as="targetPoint"/>
                    </mxGeometry>
                </mxCell>
                <mxCell id="l-EBOWrs5vo055zlGGoX-4" value="&lt;font style=&quot;font-size: 12px&quot;&gt;Сброс флага прерываний IF&lt;/font&gt;" style="whiteSpace=wrap;html=1;rounded=0;arcSize=6;strokeWidth=2;" parent="3hFEeD8surCcH0dSWmG2-1" vertex="1">
                    <mxGeometry x="-520" y="680" width="280" height="80" as="geometry"/>
                </mxCell>
                <mxCell id="l-EBOWrs5vo055zlGGoX-11" style="edgeStyle=orthogonalEdgeStyle;rounded=0;orthogonalLoop=1;jettySize=auto;html=1;exitX=0.5;exitY=1;exitDx=0;exitDy=0;startArrow=none;startFill=0;endArrow=classic;endFill=1;strokeWidth=2;" parent="3hFEeD8surCcH0dSWmG2-1" source="l-EBOWrs5vo055zlGGoX-6" target="l-EBOWrs5vo055zlGGoX-8" edge="1">
                    <mxGeometry relative="1" as="geometry"/>
                </mxCell>
                <mxCell id="l-EBOWrs5vo055zlGGoX-6" value="&lt;span&gt;Запрет маскируемых прерываний инструкцией&lt;br&gt;CLI&lt;br&gt;&lt;/span&gt;" style="whiteSpace=wrap;html=1;rounded=0;arcSize=6;strokeWidth=2;" parent="3hFEeD8surCcH0dSWmG2-1" vertex="1">
                    <mxGeometry x="-1000" y="680" width="280" height="80" as="geometry"/>
                </mxCell>
                <mxCell id="l-EBOWrs5vo055zlGGoX-13" style="edgeStyle=orthogonalEdgeStyle;rounded=0;orthogonalLoop=1;jettySize=auto;html=1;exitX=0.5;exitY=1;exitDx=0;exitDy=0;startArrow=none;startFill=0;endArrow=none;endFill=0;strokeWidth=2;" parent="3hFEeD8surCcH0dSWmG2-1" source="l-EBOWrs5vo055zlGGoX-8" target="l-EBOWrs5vo055zlGGoX-9" edge="1">
                    <mxGeometry relative="1" as="geometry"/>
                </mxCell>
                <mxCell id="l-EBOWrs5vo055zlGGoX-8" value="&lt;font style=&quot;font-size: 12px&quot;&gt;Загрузка AH в младший байт регистра EFLAGS&lt;/font&gt;" style="whiteSpace=wrap;html=1;rounded=0;arcSize=6;strokeWidth=2;" parent="3hFEeD8surCcH0dSWmG2-1" vertex="1">
                    <mxGeometry x="-760" y="840" width="280" height="80" as="geometry"/>
                </mxCell>
                <mxCell id="l-EBOWrs5vo055zlGGoX-14" style="edgeStyle=orthogonalEdgeStyle;rounded=0;orthogonalLoop=1;jettySize=auto;html=1;exitX=0.5;exitY=1;exitDx=0;exitDy=0;entryX=0.5;entryY=0;entryDx=0;entryDy=0;entryPerimeter=0;startArrow=none;startFill=0;endArrow=none;endFill=0;strokeWidth=2;" parent="3hFEeD8surCcH0dSWmG2-1" source="l-EBOWrs5vo055zlGGoX-9" target="l-EBOWrs5vo055zlGGoX-10" edge="1">
                    <mxGeometry relative="1" as="geometry"/>
                </mxCell>
                <mxCell id="l-EBOWrs5vo055zlGGoX-9" value="&lt;font style=&quot;font-size: 12px&quot;&gt;Восстановление регистров AX, DS&lt;/font&gt;" style="whiteSpace=wrap;html=1;rounded=0;arcSize=6;strokeWidth=2;" parent="3hFEeD8surCcH0dSWmG2-1" vertex="1">
                    <mxGeometry x="-760" y="960" width="280" height="80" as="geometry"/>
                </mxCell>
                <mxCell id="l-EBOWrs5vo055zlGGoX-10" value="&lt;font style=&quot;font-size: 12px&quot;&gt;Конец&lt;/font&gt;" style="strokeWidth=2;html=1;shape=mxgraph.flowchart.terminator;whiteSpace=wrap;" parent="3hFEeD8surCcH0dSWmG2-1" vertex="1">
                    <mxGeometry x="-760" y="1080" width="280" height="80" as="geometry"/>
                </mxCell>
                <mxCell id="hmYaRsFD88xVEkdwvIxV-0" value="Да" style="text;html=1;align=center;verticalAlign=middle;resizable=0;points=[];autosize=1;strokeColor=none;fillColor=none;strokeWidth=2;" parent="3hFEeD8surCcH0dSWmG2-1" vertex="1">
                    <mxGeometry x="-480" y="570" width="30" height="20" as="geometry"/>
                </mxCell>
                <mxCell id="hmYaRsFD88xVEkdwvIxV-1" value="&lt;span&gt;Загрузка в DS адреса&lt;br&gt;0040:0000&lt;br&gt;&lt;/span&gt;" style="whiteSpace=wrap;html=1;rounded=0;arcSize=6;strokeWidth=2;" parent="3hFEeD8surCcH0dSWmG2-1" vertex="1">
                    <mxGeometry x="-760" y="320" width="280" height="80" as="geometry"/>
                </mxCell>
            </root>
        </mxGraphModel>
    </diagram>
    <diagram id="pvptHs4O_jrLpWgV0axq" name="Страница 4">
        <mxGraphModel dx="1112" dy="771" grid="1" gridSize="10" guides="1" tooltips="1" connect="1" arrows="1" fold="1" page="1" pageScale="1" pageWidth="827" pageHeight="1169" math="0" shadow="0">
            <root>
                <mxCell id="eQSLLLaja5Yvgr1dc8NQ-0"/>
                <mxCell id="eQSLLLaja5Yvgr1dc8NQ-1" parent="eQSLLLaja5Yvgr1dc8NQ-0"/>
                <mxCell id="eQSLLLaja5Yvgr1dc8NQ-2" value="Б" style="verticalLabelPosition=middle;verticalAlign=middle;html=1;shape=mxgraph.flowchart.on-page_reference;rounded=0;labelPosition=center;align=center;strokeWidth=2;" vertex="1" parent="eQSLLLaja5Yvgr1dc8NQ-1">
                    <mxGeometry x="270" y="1560" width="60" height="60" as="geometry"/>
                </mxCell>
                <mxCell id="eQSLLLaja5Yvgr1dc8NQ-3" value="&lt;font style=&quot;font-size: 12px&quot;&gt;Да&lt;/font&gt;" style="edgeStyle=orthogonalEdgeStyle;rounded=0;orthogonalLoop=1;jettySize=auto;html=1;exitX=1;exitY=0.5;exitDx=0;exitDy=0;startArrow=none;startFill=0;endArrow=classic;endFill=1;strokeWidth=2;" edge="1" parent="eQSLLLaja5Yvgr1dc8NQ-1" source="eQSLLLaja5Yvgr1dc8NQ-5">
                    <mxGeometry x="-0.6364" y="20" relative="1" as="geometry">
                        <mxPoint x="540" y="1000" as="targetPoint"/>
                        <mxPoint as="offset"/>
                    </mxGeometry>
                </mxCell>
                <mxCell id="eQSLLLaja5Yvgr1dc8NQ-4" style="edgeStyle=orthogonalEdgeStyle;rounded=0;orthogonalLoop=1;jettySize=auto;html=1;exitX=0;exitY=0.5;exitDx=0;exitDy=0;startArrow=none;startFill=0;endArrow=none;endFill=0;strokeWidth=2;" edge="1" parent="eQSLLLaja5Yvgr1dc8NQ-1" source="eQSLLLaja5Yvgr1dc8NQ-5">
                    <mxGeometry relative="1" as="geometry">
                        <mxPoint x="540" y="1520" as="targetPoint"/>
                        <Array as="points">
                            <mxPoint x="60" y="880"/>
                            <mxPoint x="60" y="1520"/>
                            <mxPoint x="540" y="1520"/>
                        </Array>
                    </mxGeometry>
                </mxCell>
                <mxCell id="eQSLLLaja5Yvgr1dc8NQ-5" value="&lt;font&gt;&lt;font style=&quot;font-size: 12px&quot;&gt;2 старших байта счетчика = 24?&lt;/font&gt;&lt;br&gt;&lt;/font&gt;" style="rhombus;whiteSpace=wrap;html=1;rounded=0;arcSize=6;strokeWidth=2;" vertex="1" parent="eQSLLLaja5Yvgr1dc8NQ-1">
                    <mxGeometry x="160" y="840" width="280" height="80" as="geometry"/>
                </mxCell>
                <mxCell id="eQSLLLaja5Yvgr1dc8NQ-6" value="&lt;font style=&quot;font-size: 12px&quot;&gt;Да&lt;/font&gt;" style="edgeStyle=orthogonalEdgeStyle;rounded=0;orthogonalLoop=1;jettySize=auto;html=1;exitX=1;exitY=0.5;exitDx=0;exitDy=0;startArrow=none;startFill=0;endArrow=classic;endFill=1;entryX=0.5;entryY=0;entryDx=0;entryDy=0;strokeWidth=2;" edge="1" parent="eQSLLLaja5Yvgr1dc8NQ-1" source="eQSLLLaja5Yvgr1dc8NQ-8" target="eQSLLLaja5Yvgr1dc8NQ-10">
                    <mxGeometry x="-0.8182" y="20" relative="1" as="geometry">
                        <mxPoint x="780" y="1160" as="targetPoint"/>
                        <mxPoint as="offset"/>
                    </mxGeometry>
                </mxCell>
                <mxCell id="eQSLLLaja5Yvgr1dc8NQ-7" style="edgeStyle=orthogonalEdgeStyle;rounded=0;orthogonalLoop=1;jettySize=auto;html=1;exitX=0;exitY=0.5;exitDx=0;exitDy=0;startArrow=none;startFill=0;endArrow=none;endFill=0;strokeWidth=2;" edge="1" parent="eQSLLLaja5Yvgr1dc8NQ-1" source="eQSLLLaja5Yvgr1dc8NQ-8">
                    <mxGeometry relative="1" as="geometry">
                        <mxPoint x="540" y="1500" as="targetPoint"/>
                        <Array as="points">
                            <mxPoint x="300" y="1040"/>
                            <mxPoint x="300" y="1480"/>
                            <mxPoint x="540" y="1480"/>
                        </Array>
                    </mxGeometry>
                </mxCell>
                <mxCell id="eQSLLLaja5Yvgr1dc8NQ-8" value="&lt;font style=&quot;font-size: 12px&quot;&gt;2 младших байта счетчика = 176?&lt;/font&gt;" style="rhombus;whiteSpace=wrap;html=1;rounded=0;arcSize=6;strokeWidth=2;" vertex="1" parent="eQSLLLaja5Yvgr1dc8NQ-1">
                    <mxGeometry x="400" y="1000" width="280" height="80" as="geometry"/>
                </mxCell>
                <mxCell id="eQSLLLaja5Yvgr1dc8NQ-9" style="edgeStyle=orthogonalEdgeStyle;rounded=0;orthogonalLoop=1;jettySize=auto;html=1;exitX=0.5;exitY=1;exitDx=0;exitDy=0;entryX=0.5;entryY=0;entryDx=0;entryDy=0;startArrow=none;startFill=0;endArrow=none;endFill=0;strokeWidth=2;" edge="1" parent="eQSLLLaja5Yvgr1dc8NQ-1" source="eQSLLLaja5Yvgr1dc8NQ-10" target="eQSLLLaja5Yvgr1dc8NQ-12">
                    <mxGeometry relative="1" as="geometry"/>
                </mxCell>
                <mxCell id="eQSLLLaja5Yvgr1dc8NQ-10" value="&lt;font style=&quot;font-size: 12px&quot;&gt;Обнуление 2 старших байта счетчика реального времени&lt;/font&gt;" style="whiteSpace=wrap;html=1;rounded=0;arcSize=6;strokeWidth=2;" vertex="1" parent="eQSLLLaja5Yvgr1dc8NQ-1">
                    <mxGeometry x="680" y="1120" width="200" height="80" as="geometry"/>
                </mxCell>
                <mxCell id="eQSLLLaja5Yvgr1dc8NQ-11" style="edgeStyle=orthogonalEdgeStyle;rounded=0;orthogonalLoop=1;jettySize=auto;html=1;exitX=0.5;exitY=1;exitDx=0;exitDy=0;entryX=0.5;entryY=0;entryDx=0;entryDy=0;startArrow=none;startFill=0;endArrow=none;endFill=0;strokeWidth=2;" edge="1" parent="eQSLLLaja5Yvgr1dc8NQ-1" source="eQSLLLaja5Yvgr1dc8NQ-12" target="eQSLLLaja5Yvgr1dc8NQ-14">
                    <mxGeometry relative="1" as="geometry"/>
                </mxCell>
                <mxCell id="eQSLLLaja5Yvgr1dc8NQ-12" value="&lt;font style=&quot;font-size: 12px&quot;&gt;Обнуление 2 младших байта счетчика реального времени&lt;/font&gt;" style="whiteSpace=wrap;html=1;rounded=0;arcSize=6;strokeWidth=2;" vertex="1" parent="eQSLLLaja5Yvgr1dc8NQ-1">
                    <mxGeometry x="680" y="1240" width="200" height="80" as="geometry"/>
                </mxCell>
                <mxCell id="eQSLLLaja5Yvgr1dc8NQ-13" style="edgeStyle=orthogonalEdgeStyle;rounded=0;orthogonalLoop=1;jettySize=auto;html=1;exitX=0.5;exitY=1;exitDx=0;exitDy=0;entryX=0.5;entryY=0;entryDx=0;entryDy=0;entryPerimeter=0;startArrow=none;startFill=0;endArrow=classic;endFill=1;strokeWidth=2;" edge="1" parent="eQSLLLaja5Yvgr1dc8NQ-1" source="eQSLLLaja5Yvgr1dc8NQ-14" target="eQSLLLaja5Yvgr1dc8NQ-2">
                    <mxGeometry relative="1" as="geometry">
                        <Array as="points">
                            <mxPoint x="780" y="1480"/>
                            <mxPoint x="540" y="1480"/>
                            <mxPoint x="540" y="1520"/>
                            <mxPoint x="300" y="1520"/>
                        </Array>
                    </mxGeometry>
                </mxCell>
                <mxCell id="eQSLLLaja5Yvgr1dc8NQ-14" value="&lt;font style=&quot;font-size: 12px&quot;&gt;Установка флага прошедших суток&lt;/font&gt;" style="whiteSpace=wrap;html=1;rounded=0;arcSize=6;strokeWidth=2;" vertex="1" parent="eQSLLLaja5Yvgr1dc8NQ-1">
                    <mxGeometry x="680" y="1360" width="200" height="80" as="geometry"/>
                </mxCell>
                <mxCell id="eQSLLLaja5Yvgr1dc8NQ-30" style="edgeStyle=orthogonalEdgeStyle;rounded=0;orthogonalLoop=1;jettySize=auto;html=1;exitX=0.5;exitY=1;exitDx=0;exitDy=0;exitPerimeter=0;entryX=0.5;entryY=0;entryDx=0;entryDy=0;endArrow=none;endFill=0;strokeWidth=2;" edge="1" parent="eQSLLLaja5Yvgr1dc8NQ-1" source="eQSLLLaja5Yvgr1dc8NQ-29" target="eQSLLLaja5Yvgr1dc8NQ-5">
                    <mxGeometry relative="1" as="geometry"/>
                </mxCell>
                <mxCell id="eQSLLLaja5Yvgr1dc8NQ-29" value="А" style="verticalLabelPosition=middle;verticalAlign=middle;html=1;shape=mxgraph.flowchart.on-page_reference;rounded=0;labelPosition=center;align=center;strokeWidth=2;" vertex="1" parent="eQSLLLaja5Yvgr1dc8NQ-1">
                    <mxGeometry x="270" y="730" width="60" height="60" as="geometry"/>
                </mxCell>
            </root>
        </mxGraphModel>
    </diagram>
</mxfile>